<svg width="14" height="11" viewBox="0 0 14 11" fill="none" xmlns="http://www.w3.org/2000/svg">
  <path d="M0.0625 3.90749C0.0625 6.05119 1.84323 7.80142 4.02427 7.80142H10.0014L8.26213 9.49738C7.91703 9.83657 7.91703 10.4064 8.26213 10.7456C8.60723 11.0848 9.187 11.0848 9.5321 10.7456L12.8037 7.53006C13.1488 7.19087 13.1488 6.62103 12.8037 6.28184L9.5321 3.0663C9.35265 2.88992 9.13179 2.80851 8.89712 2.80851C8.66245 2.80851 8.44158 2.88992 8.26213 3.0663C7.91703 3.40549 7.91703 3.97533 8.26213 4.31452L10.0014 6.02405H4.02427C2.83712 6.02405 1.85703 5.07431 1.85703 3.89393C1.85703 2.7271 2.82332 1.7638 4.02427 1.7638C4.52122 1.7638 4.92154 1.37034 4.92154 0.8819C4.92154 0.393463 4.52122 0 4.02427 0C1.84323 0.0135679 0.0625 1.75023 0.0625 3.90749Z" fill="#B2C1F6" />
</svg>
