<svg width="55" height="43" viewBox="0 0 55 43" fill="none" xmlns="http://www.w3.org/2000/svg">
<path fill-rule="evenodd" clip-rule="evenodd" d="M27.0184 8.81923C27.815 8.81923 28.4978 8.13645 28.4978 7.33988V1.47935C28.4978 0.682779 27.815 0 27.0184 0C26.2218 0 25.5391 0.682779 25.5391 1.47935V7.33988C25.5391 8.13645 26.2218 8.81923 27.0184 8.81923Z" fill="#695DE9"/>
<path fill-rule="evenodd" clip-rule="evenodd" d="M13.8747 10.0138C14.1023 10.6397 14.6713 11.038 15.2403 11.038C15.411 11.038 15.5248 11.038 15.6955 10.9811C16.4921 10.7535 16.8904 9.9 16.6628 9.16032L14.7851 3.41359C14.5575 2.61702 13.7041 2.21873 12.9644 2.44632C12.1678 2.67392 11.7695 3.52739 11.9971 4.26707L13.8747 10.0138Z" fill="#695DE9"/>
<path fill-rule="evenodd" clip-rule="evenodd" d="M4.94252 17.3541C5.22702 17.3541 5.56841 17.2403 5.796 17.0696C6.42188 16.6144 6.59257 15.6472 6.08049 15.0213L2.6097 10.2987C2.15451 9.67284 1.18724 9.50215 0.561358 10.0142C-0.0645226 10.4694 -0.178319 11.3798 0.276867 12.0626L3.74766 16.7851C4.03215 17.1834 4.48734 17.3541 4.94252 17.3541Z" fill="#695DE9"/>
<path fill-rule="evenodd" clip-rule="evenodd" d="M53.4757 10.0132C52.8498 9.55801 51.8825 9.67181 51.4273 10.2977L47.9566 15.0202C47.5014 15.6461 47.6152 16.6134 48.241 17.0686C48.5255 17.2393 48.81 17.3531 49.0945 17.3531C49.5497 17.3531 50.0049 17.1255 50.2894 16.7841L53.7602 12.0615C54.2154 11.3788 54.1016 10.4684 53.4757 10.0132Z" fill="#695DE9"/>
<path fill-rule="evenodd" clip-rule="evenodd" d="M38.3433 10.9244C38.514 10.9813 38.6278 10.9813 38.7985 10.9813C39.4243 10.9813 39.9933 10.583 40.164 9.95715L42.0417 4.21043C42.2693 3.41385 41.871 2.61728 41.0744 2.38968C40.3347 2.16209 39.4812 2.56038 39.2537 3.35695L37.376 9.10368C37.1484 9.84335 37.5467 10.6968 38.3433 10.9244Z" fill="#695DE9"/>
<path fill-rule="evenodd" clip-rule="evenodd" d="M27.0186 12.1191C13.1354 12.1191 2.21093 25.7178 1.75575 26.2868C1.35746 26.7989 1.35746 27.5955 1.75575 28.1076C2.21093 28.6765 13.1354 42.2752 27.0186 42.2752C40.9017 42.2752 51.8262 28.6765 52.2814 28.1076C52.6797 27.5955 52.6797 26.7989 52.2814 26.2868C51.8262 25.7178 40.9017 12.1191 27.0186 12.1191ZM27.0186 38.5768C20.7598 38.5768 15.6389 33.456 15.6389 27.1972C15.6389 20.9384 20.7598 15.8175 27.0186 15.8175C33.2774 15.8175 38.3982 20.9384 38.3982 27.1972C38.3982 33.456 33.2774 38.5768 27.0186 38.5768ZM4.82825 27.1972C6.4783 25.3764 10.575 21.166 15.9234 18.2073C13.932 20.6539 12.7371 23.7833 12.7371 27.1972C12.7371 30.6111 13.932 33.7405 15.9234 36.1871C10.575 33.2284 6.4783 29.0179 4.82825 27.1972ZM38.1137 36.1871C40.1052 33.7405 41.3 30.6111 41.3 27.1972C41.3 23.7833 40.1052 20.6539 38.1137 18.2073C43.4622 21.166 47.5588 25.3764 49.2089 27.1972C47.5588 29.0179 43.4622 33.2284 38.1137 36.1871Z" fill="#695DE9"/>
<path fill-rule="evenodd" clip-rule="evenodd" d="M27 22C26.8261 22 26.6087 22.0435 26.4348 22.0435C26.7826 22.4783 27 23 27 23.6087C27 25 25.8696 26.087 24.5217 26.087C23.6522 26.087 22.913 25.6522 22.4348 25C22.1739 25.6087 22 26.2609 22 27C22 29.7391 24.2174 32 27 32C29.7391 32 32 29.7826 32 27C32 24.2174 29.7391 22 27 22Z" fill="#695DE9"/>
</svg>
