<svg width="36" height="46" viewBox="0 0 36 46" fill="none" xmlns="http://www.w3.org/2000/svg">
<path d="M12.2214 29.116H24.6692C25.2942 29.116 25.8008 28.6093 25.8008 27.9844V25.1837C25.8008 21.7362 22.9961 18.9316 19.5486 18.9316H17.342C13.8945 18.9316 11.0898 21.7362 11.0898 25.1837V27.9844C11.0898 28.6093 11.5966 29.116 12.2214 29.116ZM23.5376 26.8528H13.353V25.1837C13.353 22.9842 15.1425 21.1949 17.342 21.1949H19.5486C21.7481 21.1949 23.5376 22.9843 23.5376 25.1837V26.8528Z" fill="#695DE9"/>
<path d="M18.4462 20.0627C20.9421 20.0627 22.9727 18.0321 22.9727 15.5362C22.9727 13.0403 20.9421 11.0098 18.4462 11.0098C15.9503 11.0098 13.9198 13.0403 13.9198 15.5362C13.9198 18.0321 15.9503 20.0627 18.4462 20.0627ZM18.4462 13.273C19.6941 13.273 20.7094 14.2883 20.7094 15.5362C20.7094 16.7842 19.6941 17.7994 18.4462 17.7994C17.1983 17.7994 16.183 16.7842 16.183 15.5362C16.183 14.2883 17.1983 13.273 18.4462 13.273Z" fill="#695DE9"/>
<path d="M29.5271 36.9696C29.5271 37.396 29.3567 37.8048 29.0532 38.1062C28.7498 38.4077 28.3382 38.577 27.9091 38.577H8.49257C8.06343 38.577 7.65188 38.4077 7.34843 38.1062C7.04499 37.8048 6.87452 37.396 6.87452 36.9696C6.87452 36.5433 7.04499 36.1345 7.34843 35.8331C7.65188 35.5316 8.06343 35.3623 8.49257 35.3623H27.9091C28.3382 35.3623 28.7498 35.5316 29.0532 35.8331C29.3567 36.1345 29.5271 36.5433 29.5271 36.9696ZM35.9993 4.82213V40.1844C35.9993 41.4633 35.4879 42.6898 34.5776 43.5942C33.6672 44.4985 32.4326 45.0065 31.1452 45.0065H5.25648C3.96908 45.0065 2.73441 44.4985 1.82409 43.5942C0.91376 42.6898 0.402344 41.4633 0.402344 40.1844V4.82213C0.402344 3.54322 0.91376 2.31669 1.82409 1.41237C2.73441 0.508044 3.96908 0 5.25648 0H31.1452C32.4326 0 33.6672 0.508044 34.5776 1.41237C35.4879 2.31669 35.9993 3.54322 35.9993 4.82213ZM32.7632 4.82213C32.7632 4.39582 32.5928 3.98698 32.2893 3.68554C31.9859 3.3841 31.5743 3.21475 31.1452 3.21475H5.25648C4.82734 3.21475 4.41579 3.3841 4.11235 3.68554C3.8089 3.98698 3.63843 4.39582 3.63843 4.82213V40.1844C3.63843 40.6107 3.8089 41.0195 4.11235 41.321C4.41579 41.6224 4.82734 41.7918 5.25648 41.7918H31.1452C31.5743 41.7918 31.9859 41.6224 32.2893 41.321C32.5928 41.0195 32.7632 40.6107 32.7632 40.1844V4.82213Z" fill="#695DE9"/>
</svg>
