<svg width="48" height="46" viewBox="0 0 48 46" fill="none" xmlns="http://www.w3.org/2000/svg">
<path d="M46.8779 30.5142C46.5809 29.3731 45.8384 28.4304 44.8483 27.8846C43.8088 27.3389 42.6703 27.19 41.5317 27.5373L31.1859 30.8119C30.8394 30.4646 30.4929 30.2165 30.0474 30.0677L22.2262 26.9419C20.0481 26.0489 17.573 25.9 15.296 26.4954L9.9498 27.8846V27.1404C9.9498 26.3962 9.35578 25.8008 8.61326 25.8008H1.33654C0.594018 25.8008 0 26.3962 0 27.1404V43.1661C0 43.9104 0.594018 44.5057 1.33654 44.5057H8.56376C9.30628 44.5057 9.9003 43.9104 9.9003 43.1661V42.2234L26.3843 45.0515C26.9288 45.1507 27.4733 45.2003 27.9683 45.2003C29.8989 45.2003 31.7304 44.605 33.364 43.4638L45.2939 35.0292C46.6799 34.0369 47.3234 32.2012 46.8779 30.5142ZM7.22722 41.8761H2.67308V28.5296H7.22722V41.8761ZM43.7098 32.8958L31.7799 41.3304C30.3444 42.3723 28.5624 42.7692 26.8298 42.4715L9.9003 39.5442V30.6631L15.9395 29.0754C17.672 28.6289 19.5531 28.7281 21.1866 29.4227L29.0079 32.5485C29.2059 32.6477 29.3544 32.7965 29.4534 32.995C29.5524 33.1935 29.5524 33.3919 29.4534 33.5904C29.3049 33.9377 28.9584 34.0865 28.6119 34.0369L19.4046 32.5485C18.6621 32.4492 17.969 32.9454 17.87 33.64C17.771 34.3842 18.266 35.0788 18.9591 35.1781L28.1663 36.6665C28.3643 36.7161 28.5129 36.7161 28.7109 36.7161C30.0969 36.7161 31.3344 35.9223 31.879 34.5827C32.077 34.1858 32.1265 33.7392 32.176 33.2927L42.3238 30.1173C42.7198 29.9685 43.1653 30.0181 43.5613 30.2165C43.9573 30.415 44.2048 30.7623 44.3038 31.1592C44.4523 31.8538 44.2048 32.4988 43.7098 32.8958Z" fill="#695DE9"/>
<path d="M32.2766 25.7999C39.3553 25.7999 45.147 19.995 45.147 12.9C45.147 5.80499 39.3553 0 32.2766 0C25.1979 0 19.4062 5.80499 19.4062 12.9C19.4062 19.995 25.1484 25.7999 32.2766 25.7999ZM32.2766 2.67923C37.8703 2.67923 42.4739 7.24383 42.4739 12.9C42.4739 18.5065 37.8703 23.1207 32.2766 23.1207C26.6335 23.1207 22.0793 18.5561 22.0793 12.9C22.0793 7.24383 26.6335 2.67923 32.2766 2.67923Z" fill="#695DE9"/>
<path d="M29.9487 16.62C30.1962 16.8681 30.5427 17.0169 30.8893 17.0169C31.2358 17.0169 31.5823 16.8681 31.8298 16.62L37.4235 11.0135C37.968 10.4677 37.968 9.62423 37.4235 9.12808C36.8789 8.58231 36.0374 8.58231 35.5424 9.12808L30.8893 13.7919L29.0082 11.9065C28.4637 11.3608 27.6222 11.3608 27.1271 11.9065C26.5826 12.4523 26.5826 13.2958 27.1271 13.7919L29.9487 16.62Z" fill="#695DE9"/>
</svg>
