<svg width="25" height="21" viewBox="0 0 25 21" fill="none" xmlns="http://www.w3.org/2000/svg">
<path d="M17.8438 21C17.5356 20.9973 17.2307 20.9382 16.9443 20.8256C16.4667 20.6406 15.974 20.3542 15.4755 19.9727C14.9144 19.5404 14.3568 19.0951 13.8152 18.6643C13.2859 18.2417 12.741 17.8051 12.1975 17.3878C12.1429 17.3515 12.0791 17.3309 12.0134 17.3284C11.3122 17.311 10.5934 17.3129 9.89807 17.3148C9.54502 17.3148 9.17977 17.3148 8.81892 17.3148C6.65133 17.3028 4.67321 16.5971 3.09697 15.2742C1.52072 13.9514 0.494792 12.1407 0.127099 10.0267C-0.262568 7.79385 0.25064 5.52384 1.57199 3.64022C2.89871 1.74501 4.86707 0.486844 7.11424 0.096596C7.30957 0.0613385 7.72756 0.0280128 8.35405 0H8.37651H8.39897C10.3034 0.00386384 12.0124 0.00434683 12.8626 0.00434683C14.2157 0.00434683 15.6146 0.00434682 16.9902 0H17.0122H17.0341C17.1567 0.00579576 17.2685 0.0159383 17.3672 0.0255979C19.3145 0.205267 21.1632 1.10554 22.572 2.56028C23.9656 3.99956 24.8182 5.86193 24.9701 7.80544C25.1127 9.64367 24.744 11.4017 23.9041 12.8903C23.0784 14.3527 21.7922 15.564 20.1798 16.3991C20.1988 17.0067 20.193 17.6157 20.1617 18.2146C20.1385 18.6188 20.0609 19.018 19.9308 19.4018C19.7071 20.0553 19.2813 20.5532 18.7305 20.8082C18.4528 20.9359 18.15 21.0014 17.8438 21ZM10.5714 15.5215C11.0661 15.5215 11.5676 15.5244 12.0661 15.537H12.0759C12.5086 15.5512 12.9269 15.6941 13.2762 15.947L13.2972 15.9625C13.8558 16.3928 14.4139 16.8381 14.9535 17.269C15.4931 17.6998 16.039 18.1354 16.5854 18.5561C16.9448 18.8314 17.2871 19.0333 17.6001 19.1545C17.7036 19.1941 17.8545 19.2323 17.9639 19.182C18.0615 19.1366 18.1529 19.0077 18.2144 18.828C18.2924 18.5979 18.3392 18.3585 18.3535 18.1161C18.3838 17.5365 18.3877 16.9386 18.3662 16.3479C18.3384 15.6664 18.6392 15.1607 19.2603 14.8507C21.9738 13.4814 23.3997 10.9627 23.1653 7.93874C22.9177 4.78537 20.297 2.09082 17.1997 1.8049C17.1211 1.79765 17.0468 1.79041 16.9751 1.78654C15.6044 1.79089 14.2122 1.79089 12.8655 1.79089C12.0193 1.79089 10.32 1.79089 8.42192 1.78654C7.79299 1.81697 7.50733 1.84547 7.44532 1.85658H7.43555C3.81038 2.48445 1.28292 6.08507 1.91771 9.71804C2.51344 13.1723 5.29287 15.5037 8.82868 15.5215C9.18172 15.5215 9.54356 15.5215 9.89367 15.5215H10.5714Z" fill="#AFB0B6"/>
</svg>
