<svg width="31" height="24" viewBox="0 0 31 24" fill="none" xmlns="http://www.w3.org/2000/svg">
<path fill-rule="evenodd" clip-rule="evenodd" d="M15.1747 4.95378C15.6221 4.95378 16.0057 4.57026 16.0057 4.12282V0.830956C16.0057 0.383518 15.6221 0 15.1747 0C14.7273 0 14.3438 0.383518 14.3438 0.830956V4.12282C14.3438 4.57026 14.7273 4.95378 15.1747 4.95378Z" fill="#AFB0B6"/>
<path fill-rule="evenodd" clip-rule="evenodd" d="M7.79347 5.6252C7.92131 5.97676 8.24091 6.20048 8.56051 6.20048C8.65639 6.20048 8.72031 6.20048 8.81619 6.16852C9.26363 6.04068 9.48735 5.56128 9.35951 5.1458L8.30483 1.91786C8.17699 1.47042 7.69759 1.2467 7.28212 1.37454C6.83468 1.50238 6.61096 1.98178 6.7388 2.39726L7.79347 5.6252Z" fill="#AFB0B6"/>
<path fill-rule="evenodd" clip-rule="evenodd" d="M2.77622 9.74716C2.93602 9.74716 3.12778 9.68324 3.25562 9.58736C3.60718 9.33168 3.70306 8.78837 3.41542 8.43681L1.46587 5.78414C1.21019 5.43258 0.666874 5.3367 0.315316 5.62434C-0.0362425 5.88002 -0.100162 6.39138 0.155517 6.7749L2.10507 9.42756C2.26487 9.65128 2.52055 9.74716 2.77622 9.74716Z" fill="#AFB0B6"/>
<path fill-rule="evenodd" clip-rule="evenodd" d="M30.0369 5.62329C29.6853 5.36761 29.142 5.43153 28.8863 5.78309L26.9368 8.43576C26.6811 8.78732 26.745 9.33063 27.0966 9.58631C27.2564 9.68219 27.4162 9.74611 27.576 9.74611C27.8316 9.74611 28.0873 9.61827 28.2471 9.42651L30.1967 6.77384C30.4523 6.39033 30.3884 5.87897 30.0369 5.62329Z" fill="#AFB0B6"/>
<path fill-rule="evenodd" clip-rule="evenodd" d="M21.536 6.13629C21.6319 6.16825 21.6958 6.16825 21.7917 6.16825C22.1433 6.16825 22.4629 5.94453 22.5587 5.59297L23.6134 2.36503C23.7413 1.91759 23.5175 1.47015 23.0701 1.34232C22.6546 1.21448 22.1752 1.43819 22.0474 1.88563L20.9927 5.11358C20.8649 5.52905 21.0886 6.00845 21.536 6.13629Z" fill="#AFB0B6"/>
<path fill-rule="evenodd" clip-rule="evenodd" d="M15.1763 6.80664C7.37812 6.80664 1.24183 14.445 0.986149 14.7646C0.76243 15.0523 0.76243 15.4997 0.986149 15.7874C1.24183 16.107 7.37812 23.7454 15.1763 23.7454C22.9745 23.7454 29.1108 16.107 29.3665 15.7874C29.5902 15.4997 29.5902 15.0523 29.3665 14.7646C29.1108 14.445 22.9745 6.80664 15.1763 6.80664ZM15.1763 21.668C11.6607 21.668 8.78435 18.7916 8.78435 15.276C8.78435 11.7604 11.6607 8.88403 15.1763 8.88403C18.6919 8.88403 21.5683 11.7604 21.5683 15.276C21.5683 18.7916 18.6919 21.668 15.1763 21.668ZM2.71198 15.276C3.63882 14.2533 5.93992 11.8883 8.94415 10.2263C7.82556 11.6006 7.1544 13.3584 7.1544 15.276C7.1544 17.1936 7.82556 18.9514 8.94415 20.3257C5.93992 18.6637 3.63882 16.2987 2.71198 15.276ZM21.4085 20.3257C22.5271 18.9514 23.1982 17.1936 23.1982 15.276C23.1982 13.3584 22.5271 11.6006 21.4085 10.2263C24.4127 11.8883 26.7138 14.2533 27.6407 15.276C26.7138 16.2987 24.4127 18.6637 21.4085 20.3257Z" fill="#AFB0B6"/>
<path fill-rule="evenodd" clip-rule="evenodd" d="M15.1773 11.6006C15.0495 11.6006 14.8897 11.6325 14.7619 11.6325C15.0175 11.9521 15.1773 12.3357 15.1773 12.7831C15.1773 13.8058 14.3464 14.6048 13.3556 14.6048C12.7164 14.6048 12.1731 14.2852 11.8216 13.8058C11.6298 14.2533 11.502 14.7327 11.502 15.276C11.502 17.2894 13.1319 18.9514 15.1773 18.9514C17.1908 18.9514 18.8527 17.3214 18.8527 15.276C18.8527 13.2305 17.1908 11.6006 15.1773 11.6006Z" fill="#AFB0B6"/>
</svg>
