<svg width="26" height="24" viewBox="0 0 26 24" fill="none" xmlns="http://www.w3.org/2000/svg">
<path d="M3.03917 23.3612H6.24664C6.65487 23.3612 7.06309 23.245 7.35468 23.0127C8.05449 23.5935 8.92926 24 9.92066 24H20.1263C22.6339 24 24.2668 22.6643 24.5584 20.3413L25.958 11.7464C25.958 11.6883 25.958 11.6303 25.958 11.5722V11.456C25.958 9.36538 24.2668 7.68124 22.1674 7.68124H17.4437V4.4291C17.4437 2.68688 16.9188 1.46733 15.8691 0.71237C14.2945 -0.449107 12.1951 0.131632 11.9618 0.24778C11.4952 0.363927 11.2037 0.770445 11.2037 1.23504V5.41636C11.2037 8.2039 7.99618 9.30731 7.58795 9.42345C7.23805 9.07501 6.71319 8.84272 6.18833 8.84272H2.98085C1.87281 8.84272 0.998047 9.71382 0.998047 10.8172V21.3867C1.05636 22.432 1.93113 23.3612 3.03917 23.3612ZM8.22945 11.398C8.81262 11.2237 13.3614 9.71383 13.3614 5.41636V2.16422C13.7696 2.16422 14.2945 2.22229 14.6444 2.45459C15.1109 2.80303 15.3442 3.49992 15.3442 4.48717V8.78464C15.3442 9.36538 15.8108 9.82997 16.3939 9.82997H22.1674C23.1005 9.82997 23.8586 10.5849 23.8586 11.5141L22.5173 20.051C22.5173 20.051 22.5173 20.051 22.5173 20.109C22.459 20.6317 22.284 21.9093 20.1846 21.9093H9.92066C8.98758 21.9093 8.22945 21.1544 8.22945 20.2252V11.398ZM3.1558 10.8753H6.13001V21.2125H3.1558V10.8753Z" fill="#AFB0B6"/>
</svg>
