<svg width="17" height="17" viewBox="0 0 17 17" fill="none" xmlns="http://www.w3.org/2000/svg">
<path fill-rule="evenodd" clip-rule="evenodd" d="M4.84846 6.87999C5.19104 6.51984 5.76071 6.5056 6.12085 6.84818L9.04942 9.63389C9.40957 9.97647 9.42381 10.5461 9.08123 10.9063C8.73865 11.2664 8.16898 11.2807 7.80884 10.9381L4.88027 8.15238C4.52012 7.8098 4.50588 7.24013 4.84846 6.87999Z" fill="#3826F1"/>
<path fill-rule="evenodd" clip-rule="evenodd" d="M16.3328 1.9174C16.6942 2.25869 16.7104 2.82831 16.3692 3.18967L9.08344 10.904C8.74215 11.2653 8.17253 11.2816 7.81117 10.9403C7.4498 10.599 7.43353 10.0294 7.77482 9.66804L15.0605 1.95375C15.4018 1.59238 15.9714 1.57611 16.3328 1.9174Z" fill="#3826F1"/>
<path d="M16.106 7.81267C16.2724 9.49545 15.8812 11.1863 14.9927 12.625C14.1042 14.0638 12.7676 15.1708 11.1885 15.7756C9.60937 16.3805 7.87526 16.4497 6.25295 15.9727C4.63064 15.4957 3.21 14.4988 2.20962 13.1355C1.20923 11.7721 0.684516 10.1179 0.716199 8.42718C0.747881 6.73648 1.33421 5.10303 2.38497 3.77814C3.43573 2.45325 4.89271 1.51031 6.53176 1.0944C8.1708 0.678492 9.9011 0.812655 11.4564 1.47625L10.917 2.74051C9.63883 2.19516 8.21683 2.0849 6.86983 2.4267C5.52283 2.7685 4.32545 3.54343 3.46191 4.63226C2.59838 5.72108 2.11652 7.06348 2.09048 8.45293C2.06445 9.84237 2.49567 11.2019 3.31781 12.3223C4.13994 13.4427 5.30745 14.262 6.6407 14.654C7.97395 15.046 9.39907 14.9891 10.6968 14.492C11.9946 13.9949 13.093 13.0852 13.8232 11.9028C14.5534 10.7204 14.8749 9.33086 14.7381 7.94791L16.106 7.81267Z" fill="#3826F1"/>
</svg>
