<?xml version="1.0" encoding="utf-8"?>
<!-- Generator: Adobe Illustrator 16.0.0, SVG Export Plug-In . SVG Version: 6.00 Build 0)  -->
<!DOCTYPE svg PUBLIC "-//W3C//DTD SVG 1.1//EN" "http://www.w3.org/Graphics/SVG/1.1/DTD/svg11.dtd">
<svg version="1.1" id="Layer_1" xmlns="http://www.w3.org/2000/svg" xmlns:xlink="http://www.w3.org/1999/xlink" x="0px" y="0px"
	 width="800px" height="194.572px" viewBox="0 0 800 194.572" enable-background="new 0 0 800 194.572" xml:space="preserve">
<path fill="#ffffff" d="M279.938,63.8c0-7.495-2.577-11.134-9.467-11.134c-9.683,0-24.523,9.203-38.291,22.69l-6.458-23.983
	c13.767-12.837,32.486-24.184,50.345-24.184c18.498,0,30.115,12.414,30.115,31.688c0,15.194-7.1,36.393-16.564,52.879
	c-13.983,24.613-33.991,45.598-59.588,45.598c-20.438,0-33.99-12.627-33.99-31.682c0-29.979,27.75-46.672,81.965-48.809
	C279.291,72.151,279.938,67.867,279.938,63.8 M222.284,123.536c0,6.633,3.229,10.479,10.326,10.479
	c11.403,0,24.525-12.201,33.777-29.113c1.292-2.355,2.581-4.92,3.655-7.278C234.979,99.772,222.284,110.688,222.284,123.536z
	 M392.225,28.258c5.161,0,9.462,1.499,14.196,4.285l-15.063,26.334c-2.365-0.642-3.656-1.075-7.74-1.075
	c-15.917,0-31.62,16.917-44.53,46.245l-22.158,50.309h-28.396l54.643-124.168h27.965l-10.328,23.334l0.431,0.215
	C371.57,36.828,379.094,28.258,392.225,28.258z M465.338,62.94c0-6.206-3.011-9.629-10.537-9.629
	c-9.033,0-21.084,8.775-31.625,23.122c-12.912,17.559-19.364,32.755-19.364,44.745c0,6.205,3.655,10.063,10.11,10.063
	c10.322,0,25.389-11.563,38.728-30.189l10.967,22.902c-12.478,16.699-31.187,33.402-54.641,33.402
	c-20.655,0-32.486-14.127-32.486-33.611c0-21.41,10.542-41.964,24.739-60.161c17.645-22.693,38.293-36.394,58.084-36.394
	c20.437,0,30.979,11.988,30.979,29.757c0,4.492-0.645,9.636-1.72,13.487l-25.39,3.639C464.482,70.435,465.338,66.37,465.338,62.94z
	 M506.173,119.036c0,8.773,3.657,12.838,11.615,12.838c10.326,0,23.014-7.273,38.507-22.258l9.898,21.625
	c-13.771,14.775-32.913,26.113-51.416,26.113c-22.795,0-35.276-12.414-35.276-33.609c0-15.42,6.242-33.617,18.289-52.029
	c16.987-26.12,40.012-44.527,63.892-44.527c18.498,0,30.115,11.134,30.115,28.683c0,30.828-32.479,52.453-83.896,54.375
	C506.811,113.896,506.173,117.11,506.173,119.036z M565.327,59.092c0-5.141-2.579-8.566-8.599-8.566
	c-8.178,0-21.301,10.063-33.347,27.405c-2.153,3.208-4.305,6.634-6.023,10.063C543.605,86.277,565.327,74.292,565.327,59.092z
	 M637.358,0.001h28.395L597.773,154.36h-28.394L637.358,0.001z M687.88,0.001h28.83l-9.899,22.694h-28.827L687.88,0.001z
	 M648.51,154.356h-28.396l54.641-124.168h28.396L648.51,154.356z M699.252,154.356h-28.394L738.839,0h28.391l-30.326,68.508
	l53.563-43.246l7.101,23.979l-48.403,37.463l11.832,67.653h-26.029l-9.253-60.577L699.252,154.356z M407.041,162.925l7.481,20.475
	c-2.563,2.646-7.976,6.527-14.022,8.793c-4.403,1.645-8.945,2.191-12.795,2.381l-6.697-20.025c4.423-0.467,9.483-1.568,13.242-3.203
	c6.025-2.631,10.021-5.846,12.789-8.428L407.041,162.925L407.041,162.925z"/>
<path fill="#ffffff" d="M128.968,1.498l36.379,99.521c-12.446,12.865-38.745,31.736-68.169,42.723
	c-21.415,8.002-43.481,10.684-62.188,11.578L2.434,57.989c21.517-2.271,46.132-7.626,64.362-15.576
	C96.084,29.645,115.52,14.03,128.958,1.475L128.968,1.498"/>
</svg>
